<?xml version="1.0" encoding="UTF-8" standalone="no"?>
<!DOCTYPE svg PUBLIC "-//W3C//DTD SVG 1.1//EN" "http://www.w3.org/Graphics/SVG/1.1/DTD/svg11.dtd">
<svg width="100%" height="100%" viewBox="0 0 512 512" version="1.1" xmlns="http://www.w3.org/2000/svg" xmlns:xlink="http://www.w3.org/1999/xlink" xml:space="preserve" xmlns:serif="http://www.serif.com/" style="fill-rule:evenodd;clip-rule:evenodd;stroke-linejoin:round;stroke-miterlimit:2;">
    <g transform="matrix(1.37772,0,0,1.37772,-207.403,-76.1167)">
        <circle cx="336.354" cy="241.062" r="175.646" style="fill:rgb(246,247,249);"/>
    </g>
    <g transform="matrix(1.37772,0,0,1.37772,-207.403,-76.1167)">
        <path d="M511.413,226.64L161.643,226.64C161.252,231.399 161.056,236.21 161.056,241.063C161.056,246.265 161.283,251.427 161.736,256.516L511.32,256.516C511.773,251.427 512,246.266 512,241.063C512,236.21 511.804,231.399 511.413,226.64Z" style="fill:rgb(61,71,83);fill-rule:nonzero;"/>
    </g>
    <g transform="matrix(1.37772,0,0,1.37772,-207.403,-76.1167)">
        <path d="M336.354,65.416C284.258,65.416 237.446,88.101 205.284,124.136C180.549,151.838 164.479,187.42 161.295,226.639L511.412,226.639C504.078,136.386 428.504,65.416 336.354,65.416Z" style="fill:rgb(207,64,68);fill-rule:nonzero;"/>
    </g>
    <g transform="matrix(1.37772,0,0,1.37772,-207.403,-76.1167)">
        <circle cx="336.354" cy="241.062" r="59.235" style="fill:rgb(61,71,83);"/>
    </g>
    <g transform="matrix(1.37772,0,0,1.37772,-207.403,-76.1167)">
        <circle cx="336.354" cy="241.062" r="32.451" style="fill:rgb(246,247,249);"/>
    </g>
</svg>
