<?xml version="1.0" encoding="UTF-8" standalone="no"?>
<!DOCTYPE svg PUBLIC "-//W3C//DTD SVG 1.1//EN" "http://www.w3.org/Graphics/SVG/1.1/DTD/svg11.dtd">
<svg width="100%" height="100%" viewBox="0 0 149 110" version="1.1" xmlns="http://www.w3.org/2000/svg" xmlns:xlink="http://www.w3.org/1999/xlink" xml:space="preserve" xmlns:serif="http://www.serif.com/" style="fill-rule:evenodd;clip-rule:evenodd;stroke-linejoin:round;stroke-miterlimit:2;">
    <g transform="matrix(1,0,0,1,-181.601,-200.087)">
        <g transform="matrix(0.625308,0,0,0.667356,188.676,307.963)">
            <path d="M1.428,-7.003C1.618,-5.704 1.745,-5.101 2.03,-4.372C2.632,-2.819 3.551,-1.616 4.817,-0.761C6.337,0.252 8.873,0.885 11.473,0.885C14.866,0.885 17.37,0.094 19.048,-1.521C20.346,-2.819 21.043,-4.657 21.043,-6.908C21.043,-9.286 20.22,-11.029 18.415,-12.361C17.275,-13.153 15.754,-13.756 13.249,-14.294C9.729,-15.087 9.476,-15.15 8.778,-15.436C7.32,-16.07 6.622,-16.989 6.622,-18.32C6.622,-20.381 8.493,-21.776 11.251,-21.776C12.995,-21.776 14.39,-21.237 15.215,-20.254C15.754,-19.62 15.976,-19.081 16.166,-18.003L20.695,-18.542C20.315,-20.223 19.935,-21.174 19.143,-22.219C17.591,-24.309 14.866,-25.417 11.251,-25.417C5.799,-25.417 2.252,-22.567 2.252,-18.162C2.252,-16.038 3.076,-14.294 4.691,-13.026C5.83,-12.139 7.098,-11.632 9.476,-11.093C13.851,-10.078 14.041,-10.047 14.993,-9.539C15.976,-9 16.578,-7.923 16.578,-6.623C16.578,-4.245 14.676,-2.819 11.505,-2.819C9.444,-2.819 7.795,-3.485 6.876,-4.689C6.305,-5.418 6.115,-6.052 5.989,-7.479L1.428,-7.003Z" style="fill:rgb(255,0,0);fill-rule:nonzero;stroke:rgb(255,0,0);stroke-width:1.55px;"/>
            <path d="M37.433,-17.81C37.591,-16.447 37.686,-15.243 37.686,-13.69L37.686,-7.288C36.259,-4.15 34.452,-2.597 32.169,-2.597C31.566,-2.597 30.901,-2.787 30.425,-3.041C29.442,-3.643 28.966,-4.816 28.966,-6.654L28.966,-13.69C28.966,-15.306 28.998,-16.384 29.188,-17.81L24.597,-17.81C24.755,-16.637 24.85,-15.433 24.85,-13.69L24.85,-5.671C24.85,-3.072 25.673,-1.299 27.415,-0.191C28.46,0.442 29.601,0.727 31.218,0.727C34.23,0.727 35.974,-0.191 37.718,-2.66C37.686,-1.869 37.686,-1.774 37.686,-1.299L37.686,0.378L41.993,0.378C41.802,-0.921 41.739,-1.998 41.739,-3.741L41.739,-13.691C41.739,-15.465 41.771,-16.448 41.993,-17.81L37.433,-17.81Z" style="fill:rgb(255,0,0);fill-rule:nonzero;stroke:rgb(255,0,0);stroke-width:1.55px;"/>
            <path d="M50.17,0.378L50.17,-1.175C50.17,-1.555 50.17,-1.904 50.138,-2.316C51.723,-0.096 53.53,0.822 56.447,0.822C59.016,0.822 61.045,0.062 62.533,-1.457C64.243,-3.231 65.129,-5.767 65.129,-8.874C65.129,-14.771 61.995,-18.222 56.669,-18.222C53.752,-18.222 51.787,-17.241 50.138,-15.025C50.17,-16.101 50.201,-16.893 50.201,-17.399L50.201,-20.567C50.201,-22.469 50.265,-23.515 50.423,-24.846L45.958,-24.846C46.117,-23.325 46.18,-22.216 46.18,-20.599L46.18,-3.897C46.18,-2.03 46.117,-1.016 45.958,0.378L50.17,0.378ZM61.013,-8.874C61.013,-5.038 58.952,-2.565 55.75,-2.565C54.577,-2.565 53.34,-3.009 52.421,-3.738C51.153,-4.753 50.328,-6.75 50.328,-8.748C50.328,-10.396 50.931,-12.108 51.882,-13.154C52.928,-14.296 54.418,-14.898 56.194,-14.898C59.111,-14.898 61.013,-12.52 61.013,-8.874Z" style="fill:rgb(255,0,0);fill-rule:nonzero;stroke:rgb(255,0,0);stroke-width:1.55px;"/>
            <path d="M67.542,-4.785C67.922,-3.358 68.208,-2.724 68.778,-1.963C70.139,-0.128 72.577,0.854 75.844,0.854C78.729,0.854 80.947,0.157 82.404,-1.204C83.354,-2.09 83.956,-3.485 83.956,-4.785C83.956,-6.528 83.354,-7.828 82.119,-8.716C81.074,-9.508 79.776,-9.952 76.541,-10.65C74.734,-11.062 74.068,-11.252 73.37,-11.601C72.736,-11.95 72.387,-12.489 72.387,-13.091C72.387,-14.422 73.719,-15.31 75.685,-15.31C77.746,-15.31 78.825,-14.549 79.173,-12.806L83.354,-13.345C82.911,-14.898 82.467,-15.69 81.644,-16.481C80.346,-17.684 78.285,-18.317 75.685,-18.317C72.799,-18.317 70.646,-17.494 69.348,-15.848C68.714,-15.057 68.366,-14.01 68.366,-12.901C68.366,-11.062 69.348,-9.54 71.152,-8.684C72.229,-8.177 73.212,-7.86 75.717,-7.321C78.254,-6.75 78.444,-6.718 79.046,-6.306C79.554,-5.958 79.871,-5.355 79.871,-4.721C79.871,-3.231 78.412,-2.312 76.066,-2.312C73.592,-2.312 72.419,-3.168 71.881,-5.324L67.542,-4.785Z" style="fill:rgb(255,0,0);fill-rule:nonzero;stroke:rgb(255,0,0);stroke-width:1.55px;"/>
            <path d="M103.638,-12.647C103.194,-13.82 102.94,-14.327 102.528,-14.961C101.007,-17.178 98.535,-18.381 95.429,-18.381C92.83,-18.381 90.611,-17.557 89.06,-15.975C87.318,-14.201 86.368,-11.633 86.368,-8.652C86.368,-2.787 89.978,0.981 95.556,0.981C98.566,0.981 101.007,-0.127 102.528,-2.217C103.099,-2.977 103.416,-3.643 103.859,-4.911L99.929,-5.704C99.739,-4.911 99.581,-4.563 99.295,-4.119C98.503,-2.977 97.235,-2.343 95.651,-2.343C92.45,-2.343 90.484,-4.785 90.484,-8.748C90.484,-12.679 92.418,-15.12 95.524,-15.12C96.918,-15.12 98.028,-14.613 98.788,-13.662C99.2,-13.154 99.422,-12.71 99.771,-11.728L103.638,-12.647Z" style="fill:rgb(255,0,0);fill-rule:nonzero;stroke:rgb(255,0,0);stroke-width:1.55px;"/>
            <path d="M120.213,-17.81C118.787,-18.064 118.027,-18.159 117.266,-18.159C114.413,-18.159 112.448,-17.082 111.307,-14.834L111.307,-17.81L107.001,-17.81C107.191,-16.511 107.223,-15.624 107.223,-13.691L107.223,-3.741C107.223,-2.093 107.16,-1.174 107.001,0.378L111.529,0.378C111.371,-1.111 111.307,-2.03 111.307,-3.741L111.307,-9.603C111.498,-11.124 111.815,-11.853 112.607,-12.772C113.494,-13.821 114.699,-14.328 116.283,-14.328C117.107,-14.328 117.773,-14.201 119.104,-13.821L120.213,-17.81Z" style="fill:rgb(255,0,0);fill-rule:nonzero;stroke:rgb(255,0,0);stroke-width:1.55px;"/>
            <path d="M122.531,-24.846L122.531,-20.825L127.186,-20.825L127.186,-24.846L122.531,-24.846ZM122.531,-17.81C122.721,-16.511 122.785,-15.434 122.785,-13.691L122.785,-3.741C122.784,-2.157 122.721,-1.048 122.531,0.378L127.154,0.378C126.996,-0.953 126.933,-2.03 126.933,-3.773L126.933,-13.659C126.933,-15.592 126.996,-16.638 127.154,-17.81L122.531,-17.81Z" style="fill:rgb(255,0,0);fill-rule:nonzero;stroke:rgb(255,0,0);stroke-width:1.55px;"/>
            <path d="M135.332,0.378L135.332,-1.175C135.332,-1.555 135.332,-1.904 135.3,-2.316C136.885,-0.096 138.692,0.822 141.609,0.822C144.177,0.822 146.207,0.062 147.695,-1.457C149.405,-3.231 150.291,-5.767 150.291,-8.874C150.291,-14.771 147.156,-18.222 141.831,-18.222C138.914,-18.222 136.949,-17.241 135.3,-15.025C135.332,-16.101 135.363,-16.893 135.363,-17.399L135.363,-20.567C135.363,-22.469 135.427,-23.515 135.585,-24.846L131.12,-24.846C131.279,-23.325 131.342,-22.216 131.342,-20.599L131.342,-3.897C131.342,-2.03 131.279,-1.016 131.12,0.378L135.332,0.378ZM146.175,-8.874C146.175,-5.038 144.114,-2.565 140.912,-2.565C139.739,-2.565 138.502,-3.009 137.583,-3.738C136.314,-4.753 135.49,-6.75 135.49,-8.748C135.49,-10.396 136.092,-12.108 137.044,-13.154C138.09,-14.296 139.58,-14.898 141.356,-14.898C144.273,-14.898 146.175,-12.52 146.175,-8.874Z" style="fill:rgb(255,0,0);fill-rule:nonzero;stroke:rgb(255,0,0);stroke-width:1.55px;"/>
            <path d="M170.546,-7.672C170.482,-8.4 170.482,-8.495 170.482,-8.558C170.387,-10.711 170.165,-11.853 169.563,-13.375C168.295,-16.545 165.379,-18.381 161.671,-18.381C156.252,-18.381 152.734,-14.549 152.734,-8.685C152.734,-2.756 156.283,0.981 161.893,0.981C164.555,0.981 166.774,0.157 168.422,-1.457C169.214,-2.248 169.626,-2.851 170.355,-4.373L166.616,-5.579C166.299,-4.722 166.077,-4.373 165.696,-3.929C164.777,-2.914 163.446,-2.343 161.893,-2.343C160.277,-2.343 158.85,-2.978 157.931,-4.12C157.202,-5.039 156.917,-5.927 156.759,-7.672L170.546,-7.672ZM156.854,-10.806C157.329,-13.47 159.136,-15.12 161.608,-15.12C163.097,-15.12 164.175,-14.708 165.031,-13.851C165.823,-13.058 166.204,-12.201 166.425,-10.806L156.854,-10.806Z" style="fill:rgb(255,0,0);fill-rule:nonzero;stroke:rgb(255,0,0);stroke-width:1.55px;"/>
            <path d="M186.961,-17.81C185.535,-18.064 184.774,-18.159 184.014,-18.159C181.161,-18.159 179.196,-17.082 178.055,-14.834L178.055,-17.81L173.749,-17.81C173.939,-16.511 173.971,-15.624 173.971,-13.691L173.971,-3.741C173.971,-2.093 173.907,-1.174 173.749,0.378L178.277,0.378C178.118,-1.111 178.055,-2.03 178.055,-3.741L178.055,-9.603C178.245,-11.124 178.562,-11.853 179.355,-12.772C180.242,-13.821 181.446,-14.328 183.031,-14.328C183.855,-14.328 184.521,-14.201 185.852,-13.821L186.961,-17.81Z" style="fill:rgb(255,0,0);fill-rule:nonzero;stroke:rgb(255,0,0);stroke-width:1.55px;"/>
            <path d="M188.486,-4.785C188.867,-3.358 189.152,-2.724 189.722,-1.963C191.084,-0.128 193.522,0.854 196.788,0.854C199.674,0.854 201.892,0.157 203.348,-1.204C204.298,-2.09 204.9,-3.485 204.9,-4.785C204.9,-6.528 204.298,-7.828 203.063,-8.716C202.019,-9.508 200.72,-9.952 197.486,-10.65C195.678,-11.062 195.012,-11.252 194.315,-11.601C193.68,-11.95 193.332,-12.489 193.332,-13.091C193.332,-14.422 194.663,-15.31 196.63,-15.31C198.691,-15.31 199.769,-14.549 200.118,-12.806L204.298,-13.345C203.855,-14.898 203.412,-15.69 202.589,-16.481C201.29,-17.684 199.23,-18.317 196.63,-18.317C193.744,-18.317 191.59,-17.494 190.292,-15.848C189.659,-15.057 189.31,-14.01 189.31,-12.901C189.31,-11.062 190.292,-9.54 192.097,-8.684C193.173,-8.177 194.156,-7.86 196.661,-7.321C199.198,-6.75 199.388,-6.718 199.991,-6.306C200.498,-5.958 200.815,-5.355 200.815,-4.721C200.815,-3.231 199.357,-2.312 197.01,-2.312C194.537,-2.312 193.363,-3.168 192.825,-5.324L188.486,-4.785Z" style="fill:rgb(255,0,0);fill-rule:nonzero;stroke:rgb(255,0,0);stroke-width:1.55px;"/>
            <path d="M213.331,-6.559C213.267,-7.193 213.267,-7.51 213.267,-7.89C213.267,-8.334 213.267,-8.334 213.331,-10.203L213.774,-20.979C213.838,-22.342 213.964,-23.99 214.06,-24.846L208.866,-24.846C208.992,-23.959 209.088,-22.374 209.151,-20.979L209.594,-10.203C209.69,-8.27 209.69,-8.27 209.69,-7.922C209.69,-7.541 209.658,-7.224 209.626,-6.559L213.331,-6.559ZM213.774,0.378L213.774,-3.96L209.183,-3.96L209.183,0.378L213.774,0.378Z" style="fill:rgb(255,0,0);fill-rule:nonzero;stroke:rgb(255,0,0);stroke-width:1.55px;"/>
            <path d="M224.075,-6.559C224.011,-7.193 224.011,-7.51 224.011,-7.89C224.011,-8.334 224.011,-8.334 224.075,-10.203L224.519,-20.979C224.582,-22.342 224.709,-23.99 224.804,-24.846L219.61,-24.846C219.737,-23.959 219.832,-22.374 219.895,-20.979L220.339,-10.203C220.434,-8.27 220.434,-8.27 220.434,-7.922C220.434,-7.541 220.402,-7.224 220.371,-6.559L224.075,-6.559ZM224.519,0.378L224.519,-3.96L219.927,-3.96L219.927,0.378L224.519,0.378Z" style="fill:rgb(255,0,0);fill-rule:nonzero;stroke:rgb(255,0,0);stroke-width:1.55px;"/>
        </g>
        <g transform="matrix(0.182689,0,0,0.182689,211.352,206.754)">
            <path d="M501.451,133.094C495.549,111.161 478.256,93.872 456.326,87.966C416.26,77.001 255.995,77.001 255.995,77.001C255.995,77.001 95.734,77.001 55.668,87.548C34.16,93.45 16.445,111.165 10.543,133.094C0,173.157 0,256.242 0,256.242C0,256.242 0,339.746 10.543,379.39C16.449,401.32 33.738,418.613 55.672,424.519C96.156,435.484 255.999,435.484 255.999,435.484C255.999,435.484 416.26,435.484 456.326,424.937C478.26,419.034 495.549,401.742 501.455,379.812C511.998,339.746 511.998,256.664 511.998,256.664C511.998,256.664 512.42,173.157 501.451,133.094Z" style="fill:rgb(255,0,0);fill-rule:nonzero;"/>
        </g>
        <g transform="matrix(3.63795,0,0,3.88258,-160.243,-672.581)">
            <path d="M106.487,241.119C106.751,241.792 106.919,242.08 107.243,242.427C107.903,243.135 108.791,243.47 109.979,243.47C112.21,243.47 113.589,242.164 113.589,240.051C113.589,239.091 113.325,238.37 112.738,237.795C112.15,237.184 111.371,236.896 110.399,236.896C109.571,236.896 108.935,237.124 108.347,237.627C108.383,237.387 108.407,237.219 108.419,237.124L108.611,235.022L111.431,235.022C112.09,235.022 112.558,235.046 113.085,235.118L113.085,233.608C112.546,233.692 112.246,233.704 111.419,233.704L108.467,233.704C107.831,233.704 107.555,233.692 107.195,233.668C107.183,234.267 107.159,234.675 107.147,234.891L106.871,237.867C106.847,238.202 106.835,238.262 106.715,239.115L108.215,239.259C108.323,238.995 108.407,238.887 108.575,238.719C108.947,238.358 109.475,238.166 110.063,238.166C111.203,238.166 111.947,238.923 111.947,240.099C111.947,241.288 111.167,242.08 109.979,242.08C109.343,242.08 108.839,241.876 108.503,241.468C108.335,241.276 108.251,241.119 108.143,240.771L106.487,241.119Z" style="fill:white;fill-rule:nonzero;stroke:white;stroke-width:0.26px;"/>
            <path d="M119.265,237.603L121.833,234.976C122.361,234.436 122.757,234.052 123.105,233.704L120.837,233.704C120.597,234.1 120.369,234.388 119.901,234.868L116.841,238.047L116.841,235.252C116.841,234.568 116.877,234.1 116.949,233.704L115.175,233.704C115.247,234.208 115.271,234.604 115.271,235.252L115.271,241.707C115.271,242.343 115.247,242.714 115.175,243.254L116.949,243.254C116.865,242.75 116.841,242.414 116.841,241.707L116.841,239.943L118.149,238.635L120.537,241.995C120.813,242.39 121.113,242.894 121.293,243.254L123.513,243.254C123.165,242.87 123.033,242.702 122.313,241.731L119.265,237.603Z" style="fill:white;fill-rule:nonzero;stroke:white;stroke-width:0.26px;"/>
        </g>
        <g transform="matrix(1.73989,-0.345193,0.368405,1.85688,-99.6342,-61.9454)">
            <path d="M124.938,180.171C124.938,179.944 124.966,179.687 125.02,179.4C125.075,179.113 125.171,178.835 125.308,178.565C125.495,178.19 125.704,177.828 125.934,177.478C126.165,177.129 126.401,176.806 126.643,176.511C126.886,176.216 127.128,175.955 127.37,175.726C127.612,175.498 127.843,175.319 128.061,175.19L128.056,175.196C128.192,175.11 128.337,175.02 128.489,174.926C128.641,174.833 128.798,174.747 128.958,174.669C129.118,174.59 129.28,174.526 129.444,174.475C129.608,174.424 129.77,174.399 129.931,174.399C130.095,174.399 130.251,174.432 130.399,174.499C130.548,174.565 130.678,174.656 130.789,174.771C130.9,174.886 130.988,175.02 131.053,175.173C131.117,175.325 131.149,175.487 131.149,175.659C131.149,175.78 131.142,175.875 131.129,175.943C131.115,176.011 131.094,176.063 131.064,176.098C131.035,176.133 130.998,176.155 130.953,176.163C130.908,176.171 130.856,176.174 130.798,176.174C130.712,176.174 130.644,176.156 130.596,176.119C130.547,176.082 130.508,176.037 130.478,175.984C130.449,175.931 130.427,175.873 130.411,175.808C130.395,175.744 130.377,175.685 130.355,175.632C130.334,175.58 130.307,175.535 130.273,175.498C130.24,175.461 130.194,175.442 130.136,175.442C129.979,175.442 129.81,175.477 129.629,175.548C129.447,175.618 129.262,175.712 129.072,175.829C128.883,175.946 128.693,176.08 128.504,176.23C128.314,176.381 128.134,176.534 127.962,176.69C127.79,176.846 127.631,177.001 127.484,177.153C127.338,177.305 127.212,177.442 127.106,177.563C126.95,177.762 126.808,177.965 126.679,178.17C126.55,178.375 126.438,178.584 126.345,178.797C126.251,179.009 126.179,179.228 126.128,179.453C126.077,179.677 126.052,179.911 126.052,180.153C126.052,180.34 126.078,180.505 126.131,180.645C126.183,180.786 126.241,180.907 126.304,181.008C126.378,181.126 126.47,181.207 126.579,181.252C126.688,181.297 126.819,181.319 126.972,181.319C127.304,181.319 127.61,181.288 127.891,181.225C128.173,181.163 128.442,181.079 128.7,180.973C128.958,180.868 129.21,180.743 129.456,180.598C129.702,180.454 129.956,180.299 130.218,180.135L130.37,180.135C130.421,180.135 130.473,180.149 130.525,180.176C130.578,180.204 130.625,180.239 130.666,180.282C130.707,180.325 130.74,180.374 130.766,180.428C130.791,180.483 130.804,180.54 130.804,180.598C130.804,180.727 130.753,180.855 130.651,180.982C130.55,181.109 130.42,181.23 130.262,181.345C130.103,181.461 129.925,181.569 129.725,181.671C129.526,181.772 129.33,181.862 129.137,181.94C128.943,182.018 128.763,182.085 128.595,182.139C128.427,182.194 128.292,182.231 128.19,182.251C128.104,182.27 128.021,182.289 127.941,182.306C127.861,182.324 127.766,182.341 127.657,182.359C127.548,182.377 127.417,182.39 127.265,182.4C127.112,182.41 126.921,182.415 126.69,182.415C126.55,182.415 126.421,182.392 126.304,182.347C126.186,182.302 126.082,182.25 125.99,182.189C125.898,182.129 125.82,182.065 125.756,181.999C125.691,181.932 125.64,181.876 125.6,181.829C125.37,181.559 125.202,181.294 125.097,181.032C124.991,180.77 124.938,180.483 124.938,180.171Z" style="fill:white;fill-rule:nonzero;stroke:white;stroke-width:0.43px;"/>
            <path d="M131.905,180.423C131.964,180.184 132.055,179.931 132.178,179.664C132.301,179.396 132.462,179.126 132.661,178.852C132.86,178.579 133.1,178.311 133.379,178.049C133.658,177.788 133.981,177.544 134.349,177.317C134.407,177.282 134.497,177.244 134.618,177.203C134.739,177.162 134.864,177.137 134.993,177.13C135.145,176.965 135.35,176.883 135.608,176.883C135.913,176.883 136.17,176.961 136.379,177.115C136.588,177.269 136.761,177.479 136.897,177.745C136.94,177.831 136.98,177.915 137.017,177.997C137.055,178.079 137.086,178.166 137.111,178.257C137.137,178.349 137.157,178.448 137.173,178.553C137.188,178.659 137.196,178.778 137.196,178.911C137.196,179.219 137.147,179.534 137.05,179.854C136.952,180.174 136.813,180.487 136.634,180.792C136.454,181.096 136.236,181.388 135.98,181.668C135.725,181.947 135.44,182.198 135.128,182.421C134.917,182.573 134.683,182.691 134.428,182.775C134.172,182.859 133.886,182.901 133.569,182.901C133.268,182.901 133.008,182.861 132.787,182.781C132.566,182.701 132.383,182.587 132.236,182.438C132.09,182.29 131.98,182.112 131.908,181.905C131.836,181.698 131.8,181.467 131.8,181.214C131.8,180.967 131.835,180.704 131.905,180.423ZM132.878,180.499C132.854,180.589 132.838,180.674 132.828,180.754C132.818,180.834 132.813,180.911 132.813,180.985C132.813,181.114 132.83,181.234 132.863,181.345C132.896,181.457 132.95,181.552 133.024,181.632C133.099,181.713 133.191,181.775 133.303,181.82C133.414,181.865 133.55,181.887 133.71,181.887C134.007,181.887 134.283,181.812 134.539,181.662C134.795,181.511 135.022,181.323 135.222,181.096C135.421,180.87 135.588,180.627 135.723,180.367C135.857,180.107 135.952,179.868 136.007,179.649C136.042,179.512 136.072,179.383 136.098,179.262C136.123,179.141 136.136,179.03 136.136,178.928C136.136,178.827 136.117,178.732 136.08,178.644C136.043,178.556 135.995,178.458 135.936,178.348C135.901,178.282 135.866,178.213 135.831,178.14C135.796,178.068 135.765,177.997 135.737,177.926C135.706,177.981 135.673,178.029 135.638,178.07C135.602,178.111 135.55,178.148 135.479,178.181C135.409,178.215 135.313,178.245 135.192,178.272C135.071,178.299 134.913,178.323 134.718,178.342C134.589,178.385 134.458,178.452 134.325,178.542C134.192,178.632 134.062,178.737 133.935,178.858C133.808,178.979 133.687,179.11 133.572,179.251C133.457,179.391 133.353,179.535 133.262,179.681C133.17,179.828 133.09,179.971 133.021,180.112C132.953,180.253 132.905,180.382 132.878,180.499Z" style="fill:white;fill-rule:nonzero;stroke:white;stroke-width:0.43px;"/>
            <path d="M142.352,177.856C142.216,177.856 142.069,177.888 141.913,177.953C141.757,178.017 141.595,178.104 141.427,178.214C141.259,178.323 141.088,178.447 140.914,178.586C140.74,178.724 140.569,178.868 140.401,179.016C140.315,179.09 140.233,179.158 140.155,179.218C140.077,179.279 139.999,179.325 139.921,179.356C139.866,179.446 139.808,179.564 139.748,179.711C139.687,179.857 139.628,180.017 139.569,180.191C139.511,180.365 139.455,180.543 139.402,180.724C139.35,180.906 139.306,181.075 139.27,181.231C139.251,181.313 139.235,181.393 139.224,181.471C139.212,181.549 139.198,181.632 139.183,181.72C139.167,181.808 139.148,181.903 139.127,182.005C139.105,182.106 139.079,182.219 139.048,182.344C139.028,182.419 138.997,182.478 138.954,182.523C138.911,182.568 138.866,182.602 138.819,182.626C138.772,182.649 138.727,182.664 138.684,182.67C138.641,182.675 138.608,182.678 138.585,182.678C138.436,182.678 138.315,182.643 138.222,182.573C138.128,182.503 138.081,182.366 138.081,182.163C138.081,182.108 138.083,182.05 138.087,181.99C138.091,181.929 138.102,181.862 138.122,181.788C138.208,181.417 138.291,181.083 138.371,180.786C138.451,180.489 138.532,180.214 138.614,179.96C138.696,179.706 138.779,179.466 138.863,179.242C138.947,179.017 139.033,178.791 139.121,178.562C139.209,178.334 139.301,178.097 139.396,177.853C139.492,177.609 139.595,177.339 139.704,177.042C139.727,176.975 139.789,176.92 139.889,176.875C139.988,176.83 140.095,176.807 140.208,176.807C140.356,176.807 140.478,176.84 140.574,176.907C140.67,176.973 140.718,177.069 140.718,177.194C140.718,177.206 140.714,177.227 140.706,177.258C140.698,177.29 140.686,177.323 140.671,177.358L140.413,177.967C140.577,177.839 140.748,177.71 140.926,177.581C141.103,177.452 141.286,177.336 141.474,177.232C141.661,177.129 141.85,177.045 142.039,176.98C142.228,176.916 142.415,176.883 142.599,176.883C142.974,176.883 143.266,176.984 143.477,177.185C143.688,177.386 143.794,177.698 143.794,178.12C143.794,178.362 143.752,178.637 143.668,178.946C143.584,179.255 143.478,179.586 143.351,179.939C143.225,180.293 143.088,180.664 142.941,181.052C142.795,181.441 142.659,181.837 142.534,182.239C142.499,182.348 142.463,182.44 142.426,182.514C142.389,182.589 142.345,182.648 142.294,182.693C142.243,182.738 142.183,182.77 142.115,182.79C142.047,182.809 141.964,182.819 141.866,182.819C141.714,182.819 141.608,182.791 141.55,182.734C141.491,182.677 141.462,182.587 141.462,182.462C141.462,182.352 141.478,182.218 141.512,182.06C141.545,181.902 141.592,181.728 141.652,181.539C141.713,181.349 141.783,181.147 141.863,180.932C141.943,180.717 142.03,180.499 142.124,180.276C142.198,180.096 142.271,179.917 142.344,179.737C142.416,179.557 142.48,179.383 142.537,179.215C142.594,179.048 142.64,178.887 142.675,178.735C142.71,178.583 142.727,178.442 142.727,178.313C142.727,178.192 142.701,178.086 142.648,177.994C142.596,177.902 142.497,177.856 142.352,177.856Z" style="fill:white;fill-rule:nonzero;stroke:white;stroke-width:0.43px;"/>
            <path d="M145.147,185.374C145.116,185.374 145.081,185.367 145.042,185.353C145.003,185.34 144.967,185.318 144.933,185.289C144.9,185.259 144.872,185.222 144.849,185.177C144.825,185.132 144.813,185.079 144.813,185.016C144.813,184.973 144.819,184.928 144.831,184.882C144.862,184.753 144.895,184.648 144.931,184.568C144.966,184.488 145.016,184.421 145.083,184.366C145.149,184.311 145.239,184.265 145.352,184.228C145.466,184.191 145.614,184.153 145.798,184.114C145.915,184.09 146.025,184.064 146.129,184.035C146.232,184.006 146.317,183.969 146.384,183.926C146.583,183.751 146.752,183.569 146.891,183.382C147.029,183.194 147.146,183 147.242,182.799C147.338,182.597 147.418,182.391 147.482,182.18C147.547,181.969 147.608,181.755 147.667,181.536C147.69,181.462 147.711,181.384 147.728,181.304C147.746,181.224 147.768,181.133 147.796,181.032C147.647,181.161 147.493,181.29 147.333,181.419C147.173,181.548 147.009,181.663 146.841,181.764C146.673,181.866 146.502,181.949 146.328,182.013C146.154,182.078 145.981,182.11 145.809,182.11C145.708,182.11 145.594,182.079 145.467,182.016C145.34,181.954 145.22,181.872 145.106,181.77C144.993,181.669 144.897,181.55 144.819,181.416C144.741,181.281 144.702,181.139 144.702,180.991C144.702,180.897 144.714,180.796 144.737,180.686C144.761,180.577 144.782,180.479 144.802,180.393C144.864,180.135 144.956,179.885 145.077,179.643C145.198,179.401 145.339,179.171 145.499,178.952C145.659,178.733 145.835,178.525 146.026,178.328C146.218,178.131 146.417,177.948 146.624,177.78C146.882,177.569 147.14,177.417 147.397,177.323C147.655,177.229 147.929,177.182 148.218,177.182C148.339,177.182 148.455,177.188 148.566,177.2C148.678,177.212 148.783,177.236 148.883,177.273C148.982,177.31 149.075,177.365 149.161,177.437C149.247,177.509 149.325,177.604 149.395,177.721C149.411,177.749 149.424,177.781 149.433,177.818C149.443,177.855 149.448,177.887 149.448,177.915C149.448,177.946 149.439,178.023 149.422,178.146C149.404,178.269 149.381,178.422 149.351,178.603C149.322,178.785 149.287,178.988 149.246,179.213C149.205,179.437 149.163,179.664 149.12,179.892C149.077,180.121 149.034,180.345 148.991,180.566C148.948,180.787 148.907,180.985 148.868,181.161C148.802,181.469 148.719,181.788 148.619,182.116C148.519,182.444 148.398,182.764 148.256,183.077C148.113,183.389 147.946,183.684 147.755,183.962C147.563,184.239 147.341,184.482 147.087,184.691C146.833,184.9 146.546,185.066 146.225,185.189C145.905,185.312 145.546,185.374 145.147,185.374ZM145.727,180.522C145.716,180.569 145.705,180.617 145.695,180.666C145.685,180.715 145.681,180.762 145.681,180.809C145.681,180.895 145.696,180.969 145.727,181.032C145.759,181.094 145.815,181.126 145.897,181.126C146.026,181.126 146.178,181.08 146.351,180.988C146.525,180.896 146.699,180.78 146.873,180.639C147.047,180.499 147.211,180.346 147.365,180.182C147.519,180.018 147.641,179.862 147.731,179.714C147.77,179.651 147.822,179.565 147.887,179.456C147.951,179.346 148.016,179.228 148.08,179.101C148.144,178.974 148.202,178.847 148.253,178.72C148.304,178.593 148.335,178.481 148.347,178.383C148.347,178.317 148.333,178.256 148.306,178.199C148.278,178.142 148.255,178.063 148.235,177.962L148.183,177.962C148.089,177.962 147.981,177.992 147.86,178.052C147.739,178.113 147.611,178.192 147.476,178.29C147.342,178.387 147.206,178.498 147.069,178.621C146.933,178.744 146.804,178.869 146.683,178.996C146.561,179.123 146.451,179.246 146.351,179.365C146.252,179.484 146.175,179.589 146.12,179.678C146.038,179.807 145.963,179.937 145.894,180.068C145.826,180.199 145.77,180.35 145.727,180.522Z" style="fill:white;fill-rule:nonzero;stroke:white;stroke-width:0.43px;"/>
            <path d="M150.614,182.063C150.665,181.79 150.724,181.489 150.79,181.161C150.856,180.833 150.925,180.501 150.995,180.165C151.065,179.829 151.134,179.499 151.2,179.174C151.266,178.85 151.323,178.553 151.37,178.284C151.366,178.245 151.364,178.211 151.364,178.181L151.364,178.085C151.364,177.964 151.372,177.842 151.388,177.721C151.403,177.6 151.425,177.489 151.452,177.387C151.495,177.239 151.543,177.138 151.596,177.086C151.648,177.033 151.733,177.007 151.85,177.007C151.964,177.007 152.055,177.029 152.123,177.074C152.191,177.119 152.245,177.178 152.284,177.253C152.323,177.327 152.349,177.412 152.36,177.507C152.372,177.603 152.378,177.702 152.378,177.803C152.378,177.858 152.376,177.919 152.372,177.985C152.368,178.051 152.366,178.104 152.366,178.143C152.475,178.03 152.592,177.914 152.715,177.795C152.838,177.675 152.969,177.568 153.107,177.472C153.246,177.377 153.392,177.298 153.547,177.235C153.701,177.173 153.862,177.141 154.03,177.141C154.097,177.141 154.162,177.147 154.226,177.159C154.291,177.171 154.356,177.186 154.423,177.206C154.501,177.225 154.582,177.252 154.666,177.285C154.75,177.318 154.831,177.364 154.909,177.423C155.038,177.52 155.146,177.642 155.234,177.789C155.322,177.935 155.366,178.085 155.366,178.237C155.366,178.296 155.354,178.359 155.331,178.427C155.308,178.496 155.275,178.558 155.234,178.615C155.193,178.672 155.145,178.718 155.091,178.756C155.036,178.793 154.975,178.811 154.909,178.811C154.843,178.811 154.762,178.795 154.666,178.761C154.57,178.728 154.491,178.684 154.429,178.63C154.401,178.606 154.373,178.573 154.344,178.53C154.314,178.487 154.287,178.444 154.262,178.401C154.236,178.358 154.213,178.318 154.191,178.281C154.17,178.244 154.153,178.219 154.141,178.208C154.122,178.204 154.1,178.201 154.077,178.199C154.054,178.197 154.032,178.196 154.013,178.196C153.813,178.196 153.624,178.247 153.444,178.348C153.265,178.45 153.097,178.574 152.94,178.72C152.784,178.867 152.641,179.023 152.51,179.189C152.379,179.355 152.265,179.505 152.167,179.637C152.089,179.954 152.002,180.291 151.906,180.648C151.81,181.006 151.716,181.38 151.622,181.77L151.622,181.917C151.622,182.034 151.618,182.153 151.61,182.274C151.602,182.395 151.579,182.503 151.54,182.596C151.497,182.655 151.435,182.705 151.355,182.746C151.275,182.787 151.183,182.807 151.077,182.807C150.913,182.807 150.79,182.754 150.708,182.646C150.626,182.539 150.585,182.413 150.585,182.268C150.585,182.202 150.595,182.133 150.614,182.063Z" style="fill:white;fill-rule:nonzero;stroke:white;stroke-width:0.43px;"/>
            <path d="M158.454,182.415C158.454,182.301 158.468,182.166 158.495,182.007C158.522,181.849 158.536,181.653 158.536,181.419C158.407,181.512 158.265,181.624 158.108,181.753C157.952,181.882 157.79,182.005 157.622,182.122C157.454,182.239 157.287,182.338 157.121,182.418C156.955,182.498 156.8,182.538 156.655,182.538C156.538,182.538 156.427,182.52 156.321,182.485C156.216,182.45 156.126,182.403 156.052,182.344C155.845,182.18 155.695,182.016 155.603,181.852C155.512,181.688 155.466,181.497 155.466,181.278C155.466,181.18 155.475,181.079 155.492,180.973C155.51,180.868 155.536,180.747 155.571,180.61C155.72,179.993 155.975,179.422 156.336,178.896C156.697,178.371 157.145,177.923 157.681,177.551C157.888,177.407 158.095,177.314 158.302,177.273C158.509,177.232 158.714,177.212 158.917,177.212C159.007,177.212 159.107,177.217 159.219,177.229C159.33,177.241 159.431,177.253 159.52,177.264C159.61,177.245 159.683,177.231 159.74,177.223C159.797,177.215 159.856,177.212 159.919,177.212C160.036,177.212 160.134,177.227 160.212,177.258C160.29,177.29 160.352,177.332 160.399,177.384C160.446,177.437 160.48,177.498 160.502,177.566C160.523,177.634 160.534,177.706 160.534,177.78C160.534,177.882 160.518,177.978 160.487,178.07C160.456,178.162 160.425,178.255 160.393,178.348L159.62,181.436C159.604,181.604 159.591,181.758 159.579,181.899C159.567,182.04 159.544,182.171 159.509,182.292C159.497,182.327 159.482,182.371 159.465,182.424C159.447,182.476 159.419,182.527 159.38,182.576C159.341,182.625 159.292,182.667 159.233,182.702C159.175,182.737 159.099,182.755 159.005,182.755C158.884,182.755 158.787,182.747 158.715,182.731C158.642,182.715 158.587,182.693 158.548,182.664C158.509,182.634 158.483,182.599 158.472,182.558C158.46,182.517 158.454,182.469 158.454,182.415ZM156.509,180.645C156.493,180.7 156.476,180.778 156.459,180.88C156.441,180.981 156.433,181.083 156.433,181.184C156.433,181.29 156.448,181.384 156.479,181.468C156.511,181.552 156.579,181.594 156.684,181.594C156.849,181.594 157.002,181.558 157.144,181.486C157.287,181.414 157.421,181.327 157.546,181.225C157.714,181.089 157.885,180.935 158.058,180.765C158.232,180.595 158.396,180.417 158.551,180.229C158.705,180.042 158.842,179.849 158.961,179.652C159.08,179.455 159.167,179.258 159.222,179.063C159.253,178.95 159.279,178.819 159.301,178.671C159.322,178.522 159.333,178.389 159.333,178.272C159.333,178.221 159.321,178.172 159.298,178.123C159.274,178.074 159.229,178.049 159.163,178.049C158.972,178.049 158.779,178.087 158.586,178.161C158.392,178.235 158.206,178.335 158.026,178.46C157.847,178.585 157.676,178.732 157.514,178.902C157.351,179.072 157.204,179.254 157.071,179.447C156.938,179.64 156.824,179.84 156.728,180.045C156.633,180.25 156.559,180.45 156.509,180.645Z" style="fill:white;fill-rule:nonzero;stroke:white;stroke-width:0.43px;"/>
            <path d="M162.263,180.844C162.263,180.516 162.3,180.175 162.374,179.822C162.448,179.468 162.526,179.13 162.608,178.805C162.507,178.801 162.403,178.786 162.298,178.758C162.192,178.731 162.097,178.694 162.011,178.647C161.925,178.6 161.854,178.543 161.8,178.474C161.745,178.406 161.718,178.327 161.718,178.237C161.718,178.202 161.725,178.157 161.741,178.102C161.757,178.048 161.779,177.994 161.808,177.941C161.838,177.888 161.876,177.843 161.923,177.806C161.97,177.769 162.022,177.751 162.081,177.751L162.866,177.751C162.94,177.751 162.991,177.718 163.018,177.654C163.046,177.59 163.067,177.526 163.083,177.464C163.134,177.237 163.182,177.041 163.226,176.875C163.271,176.709 163.309,176.568 163.341,176.453C163.372,176.338 163.396,176.244 163.414,176.172C163.432,176.099 163.44,176.042 163.44,175.999C163.44,175.948 163.438,175.899 163.434,175.852C163.431,175.805 163.429,175.741 163.429,175.659L163.429,175.6C163.429,175.569 163.432,175.528 163.437,175.477C163.443,175.426 163.462,175.354 163.493,175.26C163.516,175.186 163.559,175.116 163.622,175.049C163.684,174.983 163.776,174.95 163.897,174.95C164.003,174.95 164.093,174.971 164.167,175.014C164.241,175.057 164.302,175.114 164.349,175.184C164.395,175.255 164.431,175.335 164.454,175.424C164.477,175.514 164.489,175.604 164.489,175.694C164.489,175.792 164.479,175.88 164.46,175.958L164.032,177.598C164.243,177.563 164.431,177.53 164.595,177.499C164.759,177.467 164.923,177.436 165.087,177.405C165.266,177.37 165.422,177.337 165.553,177.305C165.683,177.274 165.796,177.248 165.89,177.226C165.983,177.205 166.062,177.187 166.127,177.174C166.191,177.16 166.245,177.153 166.288,177.153C166.35,177.153 166.414,177.158 166.478,177.168C166.543,177.177 166.6,177.194 166.648,177.217C166.697,177.241 166.737,177.274 166.768,177.317C166.8,177.36 166.815,177.417 166.815,177.487C166.815,177.581 166.797,177.664 166.76,177.736C166.723,177.808 166.675,177.871 166.616,177.924C166.558,177.976 166.491,178.019 166.417,178.052C166.343,178.086 166.268,178.11 166.194,178.126C166.132,178.137 166.051,178.155 165.951,178.178C165.851,178.202 165.742,178.227 165.623,178.255C165.504,178.282 165.38,178.311 165.251,178.342C165.122,178.374 164.997,178.405 164.876,178.436C164.696,178.483 164.543,178.522 164.416,178.553C164.289,178.585 164.181,178.608 164.091,178.624C164.001,178.639 163.928,178.651 163.871,178.659C163.814,178.667 163.768,178.671 163.733,178.671C163.659,178.893 163.595,179.112 163.54,179.327C163.485,179.542 163.439,179.742 163.402,179.927C163.365,180.113 163.338,180.279 163.32,180.425C163.303,180.572 163.294,180.686 163.294,180.768C163.294,180.874 163.304,180.974 163.323,181.07C163.343,181.166 163.376,181.249 163.423,181.319C163.47,181.389 163.533,181.445 163.613,181.486C163.693,181.527 163.794,181.548 163.915,181.548C164.122,181.548 164.325,181.491 164.524,181.378C164.724,181.264 164.914,181.121 165.096,180.947C165.277,180.773 165.449,180.583 165.611,180.376C165.773,180.169 165.923,179.971 166.059,179.784C166.106,179.714 166.167,179.678 166.241,179.678C166.265,179.678 166.293,179.682 166.326,179.69C166.359,179.698 166.391,179.712 166.423,179.731C166.454,179.751 166.48,179.776 166.502,179.807C166.523,179.839 166.534,179.876 166.534,179.919C166.534,179.95 166.532,179.973 166.528,179.989C166.466,180.231 166.369,180.474 166.238,180.718C166.107,180.963 165.974,181.208 165.837,181.454C165.79,181.54 165.728,181.624 165.652,181.706C165.576,181.788 165.493,181.867 165.403,181.943C165.313,182.019 165.22,182.091 165.122,182.16C165.024,182.228 164.933,182.29 164.847,182.344C164.698,182.438 164.536,182.503 164.36,182.538C164.184,182.573 164.015,182.59 163.85,182.59C163.597,182.59 163.371,182.545 163.174,182.453C162.976,182.361 162.81,182.236 162.676,182.078C162.541,181.92 162.438,181.735 162.368,181.524C162.298,181.313 162.263,181.087 162.263,180.844Z" style="fill:white;fill-rule:nonzero;stroke:white;stroke-width:0.43px;"/>
            <path d="M167.899,181.63C167.931,181.63 167.959,181.633 167.984,181.641C168.01,181.649 168.038,181.658 168.069,181.668C168.1,181.677 168.136,181.686 168.175,181.694C168.214,181.702 168.265,181.706 168.327,181.706C168.511,181.706 168.715,181.686 168.939,181.647C169.164,181.608 169.376,181.557 169.575,181.495C169.774,181.432 169.945,181.361 170.088,181.281C170.23,181.201 170.311,181.118 170.331,181.032C170.343,180.985 170.349,180.944 170.349,180.909C170.349,180.842 170.316,180.779 170.252,180.718C170.187,180.658 170.106,180.6 170.009,180.546C169.911,180.491 169.806,180.44 169.692,180.393C169.579,180.346 169.474,180.303 169.376,180.264L169.177,180.182C169.075,180.143 168.975,180.095 168.878,180.039C168.78,179.982 168.689,179.917 168.605,179.842C168.521,179.768 168.447,179.681 168.383,179.582C168.318,179.482 168.27,179.368 168.239,179.239C168.224,179.184 168.211,179.13 168.201,179.075C168.191,179.02 168.186,178.962 168.186,178.899C168.186,178.798 168.221,178.681 168.289,178.55C168.357,178.42 168.449,178.29 168.564,178.161C168.68,178.032 168.81,177.909 168.957,177.792C169.103,177.674 169.257,177.577 169.417,177.499C169.534,177.417 169.647,177.342 169.757,177.276C169.866,177.21 169.976,177.153 170.088,177.106C170.199,177.059 170.312,177.022 170.428,176.995C170.543,176.967 170.665,176.954 170.794,176.954C170.911,176.954 171.038,176.96 171.175,176.971C171.311,176.983 171.436,177.01 171.55,177.053C171.663,177.096 171.758,177.16 171.834,177.244C171.91,177.328 171.948,177.44 171.948,177.581C171.948,177.624 171.942,177.68 171.931,177.751C171.919,177.821 171.899,177.891 171.872,177.962C171.845,178.032 171.811,178.092 171.772,178.143C171.733,178.194 171.686,178.219 171.632,178.219C171.542,178.219 171.468,178.202 171.409,178.167C171.35,178.132 171.298,178.093 171.251,178.052C171.204,178.011 171.155,177.973 171.104,177.938C171.054,177.903 170.991,177.885 170.917,177.885C170.827,177.885 170.723,177.902 170.603,177.935C170.484,177.968 170.362,178.013 170.237,178.07C170.112,178.127 169.99,178.192 169.871,178.266C169.752,178.34 169.644,178.417 169.549,178.495C169.453,178.573 169.376,178.65 169.317,178.726C169.259,178.802 169.229,178.872 169.229,178.934C169.229,179.001 169.251,179.055 169.294,179.098C169.337,179.141 169.391,179.178 169.458,179.21C169.544,179.257 169.642,179.303 169.754,179.35C169.865,179.397 169.977,179.444 170.091,179.491C170.204,179.538 170.314,179.585 170.422,179.632C170.529,179.678 170.622,179.721 170.7,179.76C170.806,179.815 170.9,179.869 170.984,179.922C171.068,179.974 171.14,180.032 171.198,180.094C171.257,180.157 171.302,180.227 171.333,180.305C171.364,180.383 171.38,180.475 171.38,180.581C171.38,180.632 171.376,180.682 171.368,180.733C171.36,180.784 171.349,180.842 171.333,180.909C171.321,180.967 171.301,181.036 171.271,181.114C171.242,181.192 171.211,181.269 171.178,181.345C171.144,181.422 171.11,181.49 171.075,181.55C171.04,181.611 171.011,181.651 170.987,181.671C170.835,181.811 170.655,181.943 170.448,182.066C170.241,182.189 170.025,182.297 169.801,182.388C169.576,182.48 169.351,182.553 169.127,182.608C168.902,182.663 168.696,182.69 168.509,182.69C168.415,182.69 168.311,182.672 168.198,182.634C168.085,182.597 167.98,182.549 167.885,182.488C167.789,182.427 167.709,182.358 167.644,182.28C167.58,182.202 167.548,182.124 167.548,182.046C167.548,182.007 167.559,181.963 167.583,181.914C167.606,181.865 167.636,181.82 167.671,181.779C167.706,181.738 167.744,181.703 167.785,181.674C167.826,181.644 167.864,181.63 167.899,181.63Z" style="fill:white;fill-rule:nonzero;stroke:white;stroke-width:0.43px;"/>
            <path d="M176.302,174.434C176.302,174.598 176.222,174.846 176.061,175.178C175.94,175.432 175.701,176.037 175.344,176.992C174.986,177.947 174.768,178.538 174.69,178.764C174.612,178.991 174.542,179.268 174.479,179.596C174.429,179.85 174.253,179.977 173.952,179.977C173.565,179.977 173.372,179.786 173.372,179.403C173.372,179.001 173.611,178.228 174.09,177.086C174.568,175.943 174.936,175.16 175.194,174.736C175.452,174.312 175.7,174.1 175.938,174.1C176.181,174.1 176.302,174.212 176.302,174.434ZM174.356,181.717C174.356,181.987 174.253,182.22 174.046,182.418C173.839,182.615 173.602,182.714 173.337,182.714C173.134,182.714 172.961,182.642 172.818,182.5C172.676,182.357 172.604,182.184 172.604,181.981C172.604,181.712 172.713,181.474 172.93,181.269C173.146,181.064 173.386,180.962 173.647,180.962C173.85,180.962 174.019,181.034 174.154,181.178C174.289,181.323 174.356,181.503 174.356,181.717Z" style="fill:white;fill-rule:nonzero;stroke:white;stroke-width:0.43px;"/>
        </g>
    </g>
</svg>
